<svg width="128" height="128" viewBox="0 0 128 128" fill="none" xmlns="http://www.w3.org/2000/svg">
<g clip-path="url(#clip0_210_30)">
<rect width="128" height="128" fill="white"/>
<path d="M15.104 103.6L8.70216 111.282L8.73333 111.308L8.76472 111.334L15.104 103.6ZM15.104 24.368L21.5058 32.0502L21.512 32.0451L21.5182 32.0399L15.104 24.368ZM73.6 18.992L66.1259 25.6356L66.5167 26.0753L66.9564 26.4661L73.6 18.992ZM38.528 44.208L44.7749 52.0167L44.9286 51.8938L45.0773 51.7649L38.528 44.208ZM38.528 84.144L32.2811 91.9527L32.445 92.0839L32.6144 92.208L38.528 84.144ZM73.6 86.704L66.1259 93.3476L66.5167 93.7873L66.9564 94.1781L73.6 86.704ZM73.6 108.976L80.6711 116.047H80.6711L73.6 108.976ZM70.144 100H38.912V120H70.144V100ZM38.912 100C29.2864 100 24.0778 98.0256 21.4433 95.8661L8.76472 111.334C16.5408 117.708 27.2042 120 38.912 120V100ZM21.5058 95.9178C19.3641 94.133 17.424 90.8429 17.424 83.888H-2.576C-2.576 94.6824 0.603885 104.534 8.70216 111.282L21.5058 95.9178ZM17.424 83.888V44.08H-2.576V83.888H17.424ZM17.424 44.08C17.424 37.1251 19.3641 33.835 21.5058 32.0502L8.70216 16.6858C0.603886 23.4343 -2.576 33.2856 -2.576 44.08H17.424ZM21.5182 32.0399C24.1461 29.8428 29.3221 27.84 38.912 27.84V7.84C27.1686 7.84 16.4726 10.1892 8.68979 16.6961L21.5182 32.0399ZM38.912 27.84H70.144V7.84H38.912V27.84ZM70.144 27.84C70.217 27.84 69.7824 27.855 69.0617 27.6148C68.2799 27.3542 67.1437 26.7807 66.1259 25.6356L81.0741 12.3484C77.6299 8.47366 72.9941 7.84 70.144 7.84V27.84ZM66.9564 26.4661C65.8113 25.4483 65.2378 24.3121 64.9772 23.5303C64.737 22.8096 64.752 22.375 64.752 22.448H84.752C84.752 19.5979 84.1183 14.9621 80.2437 11.5179L66.9564 26.4661ZM64.752 22.448V37.936H84.752V22.448H64.752ZM64.752 37.936C64.752 38.1992 64.6709 36.3069 66.5289 34.4489L80.6711 48.5911C84.0651 45.1971 84.752 40.9155 84.752 37.936H64.752ZM66.5289 34.4489C67.6203 33.3576 68.746 32.8888 69.3831 32.7C69.9872 32.521 70.305 32.544 70.144 32.544V52.544C72.7195 52.544 77.1819 52.0803 80.6711 48.5911L66.5289 34.4489ZM70.144 32.544H44.416V52.544H70.144V32.544ZM44.416 32.544C40.652 32.544 35.8576 33.2894 31.9787 36.6511L45.0773 51.7649C44.4047 52.3478 43.8271 52.5414 43.6796 52.5831C43.5589 52.6172 43.7561 52.544 44.416 52.544V32.544ZM32.2811 36.3993C27.9506 39.8637 26.608 44.7631 26.608 48.944H46.608C46.608 48.8518 46.6245 49.2533 46.3554 49.9171C46.0583 50.6499 45.5255 51.4162 44.7749 52.0167L32.2811 36.3993ZM26.608 48.944V79.408H46.608V48.944H26.608ZM26.608 79.408C26.608 83.5889 27.9506 88.4883 32.2811 91.9527L44.775 76.3353C45.5256 76.9358 46.0583 77.7021 46.3554 78.4349C46.6245 79.0987 46.608 79.5002 46.608 79.408H26.608ZM32.6144 92.208C36.4171 94.9967 40.9308 95.552 44.416 95.552V75.552C44.0466 75.552 43.7693 75.5354 43.5733 75.5155C43.4766 75.5056 43.4049 75.4955 43.356 75.4874C43.3071 75.4793 43.2846 75.4739 43.2857 75.4742C43.2869 75.4745 43.3153 75.4813 43.3673 75.4983C43.4194 75.5154 43.4982 75.5437 43.5989 75.5874C43.8003 75.6749 44.0979 75.8279 44.4416 76.0799L32.6144 92.208ZM44.416 95.552H70.144V75.552H44.416V95.552ZM70.144 95.552C70.217 95.552 69.7824 95.567 69.0617 95.3268C68.2799 95.0662 67.1437 94.4927 66.1259 93.3476L81.0741 80.0604C77.6299 76.1857 72.9941 75.552 70.144 75.552V95.552ZM66.9564 94.1781C65.8113 93.1603 65.2378 92.0241 64.9772 91.2423C64.737 90.5216 64.752 90.087 64.752 90.16H84.752C84.752 87.3099 84.1183 82.6741 80.2436 79.2299L66.9564 94.1781ZM64.752 90.16V105.392H84.752V90.16H64.752ZM64.752 105.392C64.752 105.655 64.6709 103.763 66.5289 101.905L80.6711 116.047C84.0651 112.653 84.752 108.371 84.752 105.392H64.752ZM66.5289 101.905C67.6203 100.814 68.746 100.345 69.3831 100.156C69.9872 99.977 70.305 100 70.144 100V120C72.7195 120 77.1819 119.536 80.6711 116.047L66.5289 101.905Z" fill="black"/>
<path d="M119.208 96.56L128.643 99.8748L128.656 99.8359L128.67 99.7969L119.208 96.56ZM113.32 104.752L119.626 112.513L119.639 112.502L119.652 112.492L113.32 104.752ZM101.928 110L99.3831 100.329H99.3831L101.928 110ZM64.936 110L62.3486 119.659L62.3698 119.665L62.3911 119.671L64.936 110ZM53.544 104.752L47.0953 112.395L47.2235 112.503L47.3553 112.607L53.544 104.752ZM47.784 96.56L38.2482 99.5713L38.2964 99.7239L38.3494 99.8749L47.784 96.56ZM47.272 61.616L40.2009 54.5449L40.2009 54.5449L47.272 61.616ZM72.872 61.616L65.3979 68.2596L65.7887 68.6993L66.2284 69.0901L72.872 61.616ZM75.56 85.04L67.9674 91.5479L68.2174 91.8395L68.4889 92.1111L75.56 85.04ZM90.024 85.04L82.4314 78.5321L82.4107 78.5563L82.3901 78.5806L90.024 85.04ZM92.584 18.992L99.6551 26.0631L92.584 18.992ZM119.72 18.992L112.246 25.6356L112.637 26.0753L113.076 26.4661L119.72 18.992ZM110.872 85.808C110.872 88.7896 110.452 91.2616 109.746 93.3231L128.67 99.7969C130.183 95.373 130.872 90.6771 130.872 85.808H110.872ZM109.773 93.2451C109.325 94.5208 108.511 95.7657 106.988 97.0124L119.652 112.492C123.761 109.13 126.872 104.914 128.643 99.8748L109.773 93.2451ZM107.014 96.9909C105.755 98.0139 103.419 99.2671 99.3831 100.329L104.473 119.671C110.165 118.173 115.424 115.927 119.626 112.513L107.014 96.9909ZM99.3831 100.329C95.6494 101.312 90.3963 101.92 83.368 101.92V121.92C91.3584 121.92 98.4786 121.248 104.473 119.671L99.3831 100.329ZM83.368 101.92C76.4365 101.92 71.222 101.314 67.4809 100.329L62.3911 119.671C68.378 121.246 75.4515 121.92 83.368 121.92V101.92ZM67.5234 100.341C63.5893 99.2868 61.1603 98.0218 59.7327 96.8971L47.3553 112.607C51.5597 115.919 56.7254 118.153 62.3486 119.659L67.5234 100.341ZM59.9927 97.1091C58.53 95.8749 57.6964 94.605 57.2186 93.2451L38.3494 99.8749C40.0903 104.83 43.0967 109.021 47.0953 112.395L59.9927 97.1091ZM57.3198 93.5487C56.6467 91.4172 56.248 88.8661 56.248 85.808H36.248C36.248 90.6006 36.8733 95.2175 38.2482 99.5713L57.3198 93.5487ZM56.248 85.808V65.072H36.248V85.808H56.248ZM56.248 65.072C56.248 64.911 56.271 65.2288 56.092 65.8329C55.9032 66.47 55.4344 67.5957 54.3431 68.6871L40.2009 54.5449C36.7117 58.0341 36.248 62.4965 36.248 65.072H56.248ZM54.3431 68.6871C52.4851 70.5451 50.5928 70.464 50.856 70.464V50.464C47.8765 50.464 43.5949 51.1509 40.2009 54.5449L54.3431 68.6871ZM50.856 70.464H69.416V50.464H50.856V70.464ZM69.416 70.464C69.489 70.464 69.0544 70.479 68.3337 70.2388C67.5519 69.9782 66.4157 69.4047 65.3979 68.2596L80.3461 54.9724C76.9019 51.0977 72.2661 50.464 69.416 50.464V70.464ZM66.2284 69.0901C65.0833 68.0723 64.5098 66.9361 64.2492 66.1543C64.0089 65.4336 64.024 64.999 64.024 65.072H84.024C84.024 62.2219 83.3903 57.5861 79.5156 54.1419L66.2284 69.0901ZM64.024 65.072V80.688H84.024V65.072H64.024ZM64.024 80.688C64.024 84.5639 65.2538 88.382 67.9674 91.5479L83.1526 78.5321C83.4253 78.8503 83.6735 79.2621 83.8379 79.7278C83.9982 80.1819 84.024 80.5309 84.024 80.688H64.024ZM68.4889 92.1111C71.0046 94.6267 74.0851 95.6036 76.1282 96.0537C78.3584 96.5451 80.7596 96.704 83.112 96.704V76.704C82.3589 76.704 81.7573 76.6771 81.2898 76.6369C80.8156 76.596 80.5434 76.5469 80.4318 76.5222C80.3074 76.4949 80.4771 76.5189 80.8262 76.679C81.1719 76.8376 81.8756 77.2135 82.6311 77.9689L68.4889 92.1111ZM83.112 96.704C85.3554 96.704 87.7166 96.5437 89.9325 96.0102C91.9567 95.5229 95.1919 94.4137 97.6579 91.4994L82.3901 78.5806C83.1941 77.6305 84.018 77.1176 84.4985 76.871C84.7464 76.7438 84.9417 76.6672 85.0611 76.625C85.1814 76.5825 85.2494 76.5663 85.2515 76.5658C85.2544 76.565 85.2101 76.5757 85.1105 76.5914C85.0116 76.607 84.8709 76.6254 84.6834 76.6428C84.3029 76.6782 83.7859 76.704 83.112 76.704V96.704ZM97.6166 91.5479C100.33 88.382 101.56 84.5639 101.56 80.688H81.56C81.56 80.5309 81.5858 80.1819 81.7461 79.7278C81.9105 79.2621 82.1587 78.8503 82.4314 78.5321L97.6166 91.5479ZM101.56 80.688V22.448H81.56V80.688H101.56ZM101.56 22.448C101.56 22.287 101.583 22.6048 101.404 23.2089C101.215 23.846 100.746 24.9717 99.6551 26.0631L85.5129 11.9209C82.0237 15.4101 81.56 19.8725 81.56 22.448H101.56ZM99.6551 26.0631C97.7971 27.9211 95.9048 27.84 96.168 27.84V7.84C93.1885 7.84 88.9069 8.52693 85.5129 11.9209L99.6551 26.0631ZM96.168 27.84H116.264V7.84H96.168V27.84ZM116.264 27.84C116.337 27.84 115.902 27.855 115.182 27.6148C114.4 27.3542 113.264 26.7807 112.246 25.6356L127.194 12.3484C123.75 8.47365 119.114 7.84 116.264 7.84V27.84ZM113.076 26.4661C111.931 25.4483 111.358 24.3121 111.097 23.5303C110.857 22.8096 110.872 22.375 110.872 22.448H130.872C130.872 19.5979 130.238 14.9621 126.364 11.5179L113.076 26.4661ZM110.872 22.448V85.808H130.872V22.448H110.872Z" fill="black"/>
</g>
<defs>
<clipPath id="clip0_210_30">
<rect width="128" height="128" fill="white"/>
</clipPath>
</defs>
</svg>
