<svg width="129" height="128" viewBox="0 0 129 128" fill="none" xmlns="http://www.w3.org/2000/svg">
<path d="M118.872 85.808C118.872 89.7333 118.317 93.3173 117.208 96.56C116.099 99.7173 114.136 102.448 111.32 104.752C108.589 106.971 104.792 108.72 99.928 110C95.064 111.28 88.8773 111.92 81.368 111.92C73.944 111.92 67.8 111.28 62.936 110C58.1573 108.72 54.36 106.971 51.544 104.752C48.8133 102.448 46.8933 99.7173 45.784 96.56C44.76 93.3173 44.248 89.7333 44.248 85.808V65.072C44.248 63.4507 44.5893 62.2987 45.272 61.616C46.04 60.848 47.2347 60.464 48.856 60.464H67.416C69.0373 60.464 70.1893 60.848 70.872 61.616C71.64 62.2987 72.024 63.4507 72.024 65.072V80.688C72.024 82.3947 72.536 83.8453 73.56 85.04C74.6693 86.1493 77.1867 86.704 81.112 86.704C84.7813 86.704 87.0853 86.1493 88.024 85.04C89.048 83.8453 89.56 82.3947 89.56 80.688V22.448C89.56 20.8267 89.9013 19.6747 90.584 18.992C91.352 18.224 92.5467 17.84 94.168 17.84H114.264C115.885 17.84 117.037 18.224 117.72 18.992C118.488 19.6747 118.872 20.8267 118.872 22.448V85.808Z" fill="white"/>
<path d="M117.208 96.56L126.643 99.8748L126.656 99.8359L126.67 99.7969L117.208 96.56ZM111.32 104.752L117.626 112.513L117.639 112.502L117.652 112.492L111.32 104.752ZM99.928 110L97.3831 100.329L97.3831 100.329L99.928 110ZM62.936 110L60.3486 119.659L60.3698 119.665L60.3911 119.671L62.936 110ZM51.544 104.752L45.0953 112.395L45.2235 112.503L45.3553 112.607L51.544 104.752ZM45.784 96.56L36.2482 99.5713L36.2964 99.7239L36.3494 99.8749L45.784 96.56ZM45.272 61.616L38.2009 54.5449L38.2009 54.5449L45.272 61.616ZM70.872 61.616L63.3979 68.2596L63.7887 68.6993L64.2284 69.0901L70.872 61.616ZM73.56 85.04L65.9674 91.5479L66.2174 91.8395L66.4889 92.1111L73.56 85.04ZM88.024 85.04L80.4314 78.5321L80.4107 78.5563L80.3901 78.5806L88.024 85.04ZM90.584 18.992L97.6551 26.0631L90.584 18.992ZM117.72 18.992L110.246 25.6356L110.637 26.0753L111.076 26.4661L117.72 18.992ZM108.872 85.808C108.872 88.7896 108.452 91.2616 107.746 93.3231L126.67 99.7969C128.183 95.373 128.872 90.6771 128.872 85.808H108.872ZM107.773 93.2452C107.325 94.5208 106.511 95.7657 104.988 97.0124L117.652 112.492C121.761 109.13 124.872 104.914 126.643 99.8748L107.773 93.2452ZM105.014 96.9909C103.755 98.0139 101.419 99.2671 97.3831 100.329L102.473 119.671C108.165 118.173 113.424 115.927 117.626 112.513L105.014 96.9909ZM97.3831 100.329C93.6494 101.312 88.3963 101.92 81.368 101.92V121.92C89.3584 121.92 96.4786 121.248 102.473 119.671L97.3831 100.329ZM81.368 101.92C74.4365 101.92 69.222 101.314 65.4809 100.329L60.3911 119.671C66.378 121.246 73.4515 121.92 81.368 121.92V101.92ZM65.5234 100.341C61.5893 99.2868 59.1603 98.0218 57.7327 96.8971L45.3553 112.607C49.5597 115.919 54.7254 118.153 60.3486 119.659L65.5234 100.341ZM57.9927 97.1091C56.53 95.8749 55.6964 94.605 55.2186 93.2451L36.3494 99.8749C38.0903 104.83 41.0967 109.021 45.0953 112.395L57.9927 97.1091ZM55.3198 93.5487C54.6467 91.4172 54.248 88.866 54.248 85.808H34.248C34.248 90.6006 34.8733 95.2175 36.2482 99.5713L55.3198 93.5487ZM54.248 85.808V65.072H34.248V85.808H54.248ZM54.248 65.072C54.248 64.911 54.271 65.2288 54.092 65.8329C53.9032 66.47 53.4344 67.5957 52.3431 68.6871L38.2009 54.5449C34.7117 58.0341 34.248 62.4965 34.248 65.072H54.248ZM52.3431 68.6871C50.4851 70.5451 48.5928 70.464 48.856 70.464V50.464C45.8765 50.464 41.5949 51.1509 38.2009 54.5449L52.3431 68.6871ZM48.856 70.464H67.416V50.464H48.856V70.464ZM67.416 70.464C67.489 70.464 67.0544 70.479 66.3337 70.2388C65.5519 69.9782 64.4157 69.4047 63.3979 68.2596L78.3461 54.9724C74.9019 51.0977 70.2661 50.464 67.416 50.464V70.464ZM64.2284 69.0901C63.0833 68.0723 62.5098 66.9361 62.2492 66.1543C62.009 65.4336 62.024 64.999 62.024 65.072H82.024C82.024 62.2219 81.3903 57.5861 77.5156 54.1419L64.2284 69.0901ZM62.024 65.072V80.688H82.024V65.072H62.024ZM62.024 80.688C62.024 84.5639 63.2538 88.382 65.9674 91.5479L81.1526 78.5321C81.4253 78.8503 81.6735 79.2621 81.8379 79.7278C81.9982 80.1819 82.024 80.5309 82.024 80.688H62.024ZM66.4889 92.1111C69.0046 94.6267 72.0851 95.6036 74.1282 96.0537C76.3584 96.5451 78.7596 96.704 81.112 96.704V76.704C80.3589 76.704 79.7573 76.6771 79.2898 76.6369C78.8156 76.596 78.5434 76.5469 78.4318 76.5222C78.3074 76.4949 78.4771 76.5189 78.8262 76.679C79.1719 76.8376 79.8756 77.2135 80.6311 77.9689L66.4889 92.1111ZM81.112 96.704C83.3554 96.704 85.7166 96.5437 87.9325 96.0102C89.9567 95.5229 93.1919 94.4137 95.6579 91.4994L80.3901 78.5806C81.1941 77.6305 82.018 77.1176 82.4985 76.871C82.7464 76.7438 82.9417 76.6672 83.0611 76.625C83.1814 76.5825 83.2494 76.5663 83.2515 76.5658C83.2544 76.565 83.2101 76.5757 83.1105 76.5914C83.0116 76.607 82.8709 76.6254 82.6834 76.6428C82.3029 76.6782 81.7859 76.704 81.112 76.704V96.704ZM95.6166 91.5479C98.3302 88.382 99.56 84.5639 99.56 80.688H79.56C79.56 80.5309 79.5858 80.1819 79.7461 79.7278C79.9105 79.2621 80.1587 78.8503 80.4314 78.5321L95.6166 91.5479ZM99.56 80.688V22.448H79.56V80.688H99.56ZM99.56 22.448C99.56 22.287 99.583 22.6048 99.404 23.2089C99.2152 23.846 98.7464 24.9717 97.6551 26.0631L83.5129 11.9209C80.0237 15.4101 79.56 19.8725 79.56 22.448H99.56ZM97.6551 26.0631C95.7971 27.9211 93.9048 27.84 94.168 27.84V7.84C91.1885 7.84 86.9069 8.52693 83.5129 11.9209L97.6551 26.0631ZM94.168 27.84H114.264V7.84H94.168V27.84ZM114.264 27.84C114.337 27.84 113.902 27.855 113.182 27.6148C112.4 27.3542 111.264 26.7807 110.246 25.6356L125.194 12.3484C121.75 8.47365 117.114 7.84 114.264 7.84V27.84ZM111.076 26.4661C109.931 25.4483 109.358 24.3121 109.097 23.5303C108.857 22.8096 108.872 22.375 108.872 22.448H128.872C128.872 19.5979 128.238 14.9621 124.364 11.5179L111.076 26.4661ZM108.872 22.448V85.808H128.872V22.448H108.872Z" fill="black"/>
<path d="M73.144 110H41.912C31.2453 110 23.3093 107.867 18.104 103.6C12.984 99.3333 10.424 92.7627 10.424 83.888V44.08C10.424 35.2053 12.984 28.6347 18.104 24.368C23.3093 20.016 31.2453 17.84 41.912 17.84H73.144C74.7653 17.84 75.9173 18.224 76.6 18.992C77.368 19.6747 77.752 20.8267 77.752 22.448V37.936C77.752 39.5573 77.368 40.752 76.6 41.52C75.9173 42.2027 74.7653 42.544 73.144 42.544H47.416C44.7707 42.544 42.808 43.0987 41.528 44.208C40.248 45.232 39.608 46.8107 39.608 48.944V79.408C39.608 81.5413 40.248 83.12 41.528 84.144C42.808 85.0827 44.7707 85.552 47.416 85.552H73.144C74.7653 85.552 75.9173 85.936 76.6 86.704C77.368 87.3867 77.752 88.5387 77.752 90.16V105.392C77.752 107.013 77.368 108.208 76.6 108.976C75.9173 109.659 74.7653 110 73.144 110Z" fill="white"/>
<path d="M18.104 103.6L11.7022 111.282L11.7333 111.308L11.7647 111.334L18.104 103.6ZM18.104 24.368L24.5058 32.0502L24.512 32.0451L24.5182 32.0399L18.104 24.368ZM76.6 18.992L69.1259 25.6356L69.5167 26.0753L69.9564 26.4661L76.6 18.992ZM41.528 44.208L47.7749 52.0167L47.9286 51.8938L48.0773 51.7649L41.528 44.208ZM41.528 84.144L35.2811 91.9527L35.445 92.0839L35.6144 92.208L41.528 84.144ZM76.6 86.704L69.1259 93.3476L69.5167 93.7873L69.9564 94.1781L76.6 86.704ZM76.6 108.976L83.6711 116.047L83.6711 116.047L76.6 108.976ZM73.144 100H41.912V120H73.144V100ZM41.912 100C32.2864 100 27.0778 98.0255 24.4433 95.8661L11.7647 111.334C19.5408 117.708 30.2042 120 41.912 120V100ZM24.5058 95.9178C22.3641 94.133 20.424 90.8429 20.424 83.888H0.424C0.424 94.6824 3.60388 104.534 11.7022 111.282L24.5058 95.9178ZM20.424 83.888V44.08H0.424V83.888H20.424ZM20.424 44.08C20.424 37.1251 22.3641 33.835 24.5058 32.0502L11.7022 16.6858C3.60389 23.4343 0.424 33.2856 0.424 44.08H20.424ZM24.5182 32.0399C27.1461 29.8428 32.3221 27.84 41.912 27.84V7.84C30.1686 7.84 19.4726 10.1892 11.6898 16.6961L24.5182 32.0399ZM41.912 27.84H73.144V7.84H41.912V27.84ZM73.144 27.84C73.217 27.84 72.7824 27.855 72.0617 27.6148C71.2799 27.3542 70.1437 26.7807 69.1259 25.6356L84.0741 12.3484C80.6299 8.47366 75.9941 7.84 73.144 7.84V27.84ZM69.9564 26.4661C68.8113 25.4483 68.2378 24.3121 67.9772 23.5303C67.737 22.8096 67.752 22.375 67.752 22.448H87.752C87.752 19.5979 87.1183 14.9621 83.2437 11.5179L69.9564 26.4661ZM67.752 22.448V37.936H87.752V22.448H67.752ZM67.752 37.936C67.752 38.1992 67.6709 36.3069 69.5289 34.4489L83.6711 48.5911C87.0651 45.1971 87.752 40.9155 87.752 37.936H67.752ZM69.5289 34.4489C70.6203 33.3576 71.746 32.8888 72.3831 32.7C72.9872 32.521 73.305 32.544 73.144 32.544V52.544C75.7195 52.544 80.1819 52.0803 83.6711 48.5911L69.5289 34.4489ZM73.144 32.544H47.416V52.544H73.144V32.544ZM47.416 32.544C43.652 32.544 38.8576 33.2894 34.9787 36.6511L48.0773 51.7649C47.4047 52.3478 46.8271 52.5414 46.6796 52.5831C46.5589 52.6172 46.7561 52.544 47.416 52.544V32.544ZM35.2811 36.3993C30.9506 39.8637 29.608 44.7631 29.608 48.944H49.608C49.608 48.8518 49.6245 49.2533 49.3554 49.9171C49.0583 50.6499 48.5255 51.4162 47.7749 52.0167L35.2811 36.3993ZM29.608 48.944V79.408H49.608V48.944H29.608ZM29.608 79.408C29.608 83.5889 30.9506 88.4883 35.2811 91.9527L47.775 76.3353C48.5256 76.9358 49.0583 77.7021 49.3554 78.4349C49.6245 79.0987 49.608 79.5002 49.608 79.408H29.608ZM35.6144 92.208C39.4171 94.9968 43.9308 95.552 47.416 95.552V75.552C47.0466 75.552 46.7693 75.5354 46.5733 75.5155C46.4766 75.5056 46.4049 75.4955 46.356 75.4874C46.3071 75.4793 46.2846 75.4739 46.2857 75.4742C46.2869 75.4745 46.3153 75.4813 46.3673 75.4983C46.4194 75.5154 46.4982 75.5437 46.5989 75.5874C46.8003 75.6749 47.0979 75.8279 47.4416 76.0799L35.6144 92.208ZM47.416 95.552H73.144V75.552H47.416V95.552ZM73.144 95.552C73.217 95.552 72.7824 95.5671 72.0617 95.3268C71.2799 95.0662 70.1437 94.4927 69.1259 93.3476L84.0741 80.0604C80.6299 76.1857 75.9941 75.552 73.144 75.552V95.552ZM69.9564 94.1781C68.8113 93.1603 68.2378 92.0241 67.9772 91.2423C67.737 90.5216 67.752 90.087 67.752 90.16H87.752C87.752 87.3099 87.1183 82.6741 83.2436 79.2299L69.9564 94.1781ZM67.752 90.16V105.392H87.752V90.16H67.752ZM67.752 105.392C67.752 105.655 67.6709 103.763 69.5289 101.905L83.6711 116.047C87.0651 112.653 87.752 108.371 87.752 105.392H67.752ZM69.5289 101.905C70.6203 100.814 71.746 100.345 72.3831 100.156C72.9872 99.977 73.305 100 73.144 100V120C75.7195 120 80.1819 119.536 83.6711 116.047L69.5289 101.905Z" fill="black"/>
</svg>
